<svg width="50" height="51" viewBox="0 0 50 51" fill="none" xmlns="http://www.w3.org/2000/svg">
<g clip-path="url(#clip0_3_2)">
<path d="M48.0511 10.6351C46.2463 8.44675 42.914 7.55408 36.5502 7.55408H13.4494C6.93984 7.55408 3.55113 8.50433 1.75306 10.8342C0 13.1058 0 16.4529 0 21.0854V29.9148C0 38.8893 2.08 43.4459 13.4494 43.4459H36.5503C42.069 43.4459 45.1271 42.6582 47.1055 40.7269C49.1343 38.7465 50 35.5129 50 29.9148V21.0854C50 16.2001 49.8644 12.8332 48.0511 10.6351ZM32.1002 26.7191L21.6102 32.3111C21.3756 32.4362 21.1192 32.4982 20.8631 32.4982C20.5731 32.4982 20.2837 32.4186 20.0274 32.2603C19.5448 31.962 19.2502 31.4285 19.2502 30.853V19.7048C19.2502 19.1303 19.544 18.5972 20.0256 18.2988C20.5074 18.0004 21.1066 17.98 21.6065 18.2448L32.0965 23.8009C32.6302 24.0835 32.9653 24.6455 32.9661 25.2587C32.9668 25.8723 32.6331 26.4351 32.1002 26.7191Z" fill="white" stroke="white" stroke-width="2.58065"/>
</g>
<defs>
<clipPath id="clip0_3_2">
<rect width="50" height="51" fill="white"/>
</clipPath>
</defs>
</svg>
