<svg width="50" height="51" viewBox="0 0 50 51" fill="none" xmlns="http://www.w3.org/2000/svg">
<g clip-path="url(#clip0_3_8)">
<path d="M6.42 0.00203705H43.583C47.1137 0.00203705 50 2.94712 50 6.5484V44.4547C50 48.0549 47.1137 50.998 43.583 50.998H6.42C2.88933 50.998 0 48.0547 0 44.4547V6.5484C0 2.94712 2.88933 0.00203705 6.42 0.00203705ZM36.4243 5.66593C35.1847 5.66593 34.1735 6.7014 34.1735 7.96518V13.4586C34.1735 14.7228 35.1847 15.7559 36.4243 15.7559H42.0748C43.3125 15.7559 44.3258 14.7228 44.3258 13.4586V7.96518C44.3258 6.7014 43.3125 5.66593 42.0748 5.66593H36.4243ZM44.3473 21.5676H39.948C40.3652 22.9573 40.5913 24.4229 40.5913 25.9466C40.5913 34.4265 33.6303 41.3044 25.047 41.3044C16.4658 41.3044 9.50467 34.4265 9.50467 25.9466C9.50467 24.4229 9.733 22.9573 10.1482 21.5676H5.55833V43.112C5.55833 44.2277 6.4515 45.1353 7.54433 45.1353H42.3622C43.456 45.1353 44.3473 44.2277 44.3473 43.112V21.5676ZM25.0472 15.4663C19.5038 15.4663 15.0072 19.908 15.0072 25.3922C15.0072 30.8708 19.5038 35.316 25.0472 35.316C30.5935 35.316 35.0903 30.8708 35.0903 25.3922C35.0903 19.9078 30.5935 15.4663 25.0472 15.4663Z" fill="white" stroke="white" stroke-width="2.66667"/>
</g>
<defs>
<clipPath id="clip0_3_8">
<rect width="50" height="51" fill="white"/>
</clipPath>
</defs>
</svg>
